<svg width="75" height="75" viewBox="0 0 75 75" fill="none" xmlns="http://www.w3.org/2000/svg">
<path d="M0 0H75V37.5V75L45.5 74L49 73V73C52.3131 72.0061 55.4513 70.5023 58.3016 68.5426L60.1051 67.3028C61.3657 66.4361 62.5443 65.4557 63.626 64.374V64.374C65.5296 62.4704 67.1138 60.2725 68.3177 57.8647L69 56.5L71 52V52C72.33 48.6751 73.3227 45.225 73.9633 41.7017L74 41.5L75 37.5L74 32L73 28L72.4339 26.1602C71.4815 23.0648 70.1577 20.0961 68.4914 17.3191L68.0541 16.5902C67.0204 14.8674 65.8233 13.2481 64.4793 11.7548L64.3305 11.5894C62.7822 9.86915 61.0364 8.33755 59.1293 7.02637V7.02637C55.7472 4.70119 51.9161 3.10926 47.8821 2.35289L45.4571 1.89821C40.5274 0.973885 35.4701 0.959991 30.5353 1.85722L27.4875 2.41137C23.5349 3.13002 19.7635 4.62359 16.3907 6.80604V6.80604C14.1401 8.2623 12.0916 10.0093 10.2983 12.0019L10.2353 12.0719C9.08044 13.3551 8.03417 14.732 7.10732 16.1885L6.6518 16.9043C5.55212 18.6324 4.58233 20.4398 3.75044 22.3115L3 24L1.5 28V28C0.834327 30.6627 0.3752 33.3728 0.126712 36.1062L0 37.5L0.5 41.5L1.5 47L3 52L3.70009 53.5752C4.56469 55.5205 5.62157 57.388 6.84237 59.132V59.132C7.94121 60.7017 9.18134 62.1813 10.5363 63.5363V63.5363C12.1742 65.1742 13.9874 66.6389 15.9321 67.8972V67.8972C19.5991 70.27 23.7124 71.9022 28.0097 72.6836L38 74.5L45.5 74L75 75H37.5H0V37.5V18.75V0Z" fill="white"/>
</svg>
